<svg width="10" height="10" viewBox="0 0 10 10" fill="none" xmlns="http://www.w3.org/2000/svg">
<path d="M8.4127 2.69841L1.36905 9.7619C1.21032 9.92063 1.02169 10 0.803175 10C0.585185 10 0.396825 9.92063 0.238095 9.7619C0.0793648 9.60317 0 9.41455 0 9.19603C0 8.97804 0.0793648 8.78968 0.238095 8.63095L7.30159 1.5873H1.26984C1.04497 1.5873 0.856349 1.51138 0.703968 1.35952C0.552116 1.20714 0.47619 1.01852 0.47619 0.793651C0.47619 0.568783 0.552116 0.380159 0.703968 0.227778C0.856349 0.0759261 1.04497 0 1.26984 0H9.20635C9.43122 0 9.61958 0.0759261 9.77143 0.227778C9.92381 0.380159 10 0.568783 10 0.793651V8.73016C10 8.95503 9.92381 9.14339 9.77143 9.29524C9.61958 9.44762 9.43122 9.52381 9.20635 9.52381C8.98148 9.52381 8.79312 9.44762 8.64127 9.29524C8.48889 9.14339 8.4127 8.95503 8.4127 8.73016V2.69841Z" fill="#240343"/>
</svg>
