<svg width="21" height="20" viewBox="0 0 21 20" fill="none" xmlns="http://www.w3.org/2000/svg">
<path d="M6.91585 20C6.36568 20 5.89488 19.8043 5.50343 19.413C5.11131 19.021 4.91525 18.55 4.91525 18C4.91525 17.45 5.11131 16.979 5.50343 16.587C5.89488 16.1957 6.36568 16 6.91585 16C7.46601 16 7.93682 16.1957 8.32827 16.587C8.72039 16.979 8.91644 17.45 8.91644 18C8.91644 18.55 8.72039 19.021 8.32827 19.413C7.93682 19.8043 7.46601 20 6.91585 20ZM16.9188 20C16.3687 20 15.8979 19.8043 15.5064 19.413C15.1143 19.021 14.9182 18.55 14.9182 18C14.9182 17.45 15.1143 16.979 15.5064 16.587C15.8979 16.1957 16.3687 16 16.9188 16C17.469 16 17.9401 16.1957 18.3322 16.587C18.7237 16.979 18.9194 17.45 18.9194 18C18.9194 18.55 18.7237 19.021 18.3322 19.413C17.9401 19.8043 17.469 20 16.9188 20ZM6.0656 4L8.46631 9H15.4684L18.2192 4H6.0656ZM6.91585 15C6.16563 15 5.59879 14.6707 5.21534 14.012C4.8319 13.354 4.81522 12.7 5.16533 12.05L6.51573 9.6L2.91466 2H1.88935C1.60594 2 1.37253 1.904 1.18914 1.712C1.00576 1.52067 0.914062 1.28333 0.914062 1C0.914062 0.716667 1.01009 0.479 1.20215 0.287C1.39354 0.0956666 1.63094 0 1.91436 0H3.53984C3.72323 0 3.89828 0.0500001 4.065 0.15C4.23172 0.25 4.35675 0.391667 4.44011 0.575L5.11531 2H19.8697C20.3198 2 20.6283 2.16667 20.795 2.5C20.9617 2.83333 20.9534 3.18333 20.77 3.55L17.2189 9.95C17.0355 10.2833 16.7938 10.5417 16.4937 10.725C16.1936 10.9083 15.8518 11 15.4684 11H8.01618L6.91585 13H17.9441C18.2275 13 18.461 13.0957 18.6443 13.287C18.8277 13.479 18.9194 13.7167 18.9194 14C18.9194 14.2833 18.8234 14.5207 18.6313 14.712C18.4399 14.904 18.2025 15 17.9191 15H6.91585Z" fill="white"/>
</svg>
