<svg width="24" height="24" viewBox="0 0 24 24" fill="none" xmlns="http://www.w3.org/2000/svg">
<g id="Group">
<g id="Group_2">
<path id="Path" fill-rule="evenodd" clip-rule="evenodd" d="M18.6431 16.4406H12.5201C12.1521 16.4406 11.8141 16.2386 11.6401 15.9146L5.42006 4.37464C5.02206 3.63664 4.11006 3.34764 3.35906 3.72264V3.72264C2.57406 4.11564 2.27006 5.07964 2.68806 5.85164L10.0231 19.3926C10.3731 20.0376 11.0481 20.4396 11.7821 20.4396H18.1431C18.6021 20.4396 19.0021 20.1276 19.1131 19.6826L19.6131 17.6826C19.7711 17.0516 19.2931 16.4406 18.6431 16.4406Z" stroke="#FF7925" stroke-width="1.5" stroke-linecap="round" stroke-linejoin="round"/>
<path id="Path_2" fill-rule="evenodd" clip-rule="evenodd" d="M21.5 10.4404C21.5 11.2684 20.157 11.9404 18.5 11.9404C16.843 11.9404 15.5 11.2684 15.5 10.4404V8.94043C15.5 8.11243 16.843 7.44043 18.5 7.44043C20.157 7.44043 21.5 8.11243 21.5 8.94043V10.4404Z" stroke="#FF7925" stroke-width="1.5" stroke-linecap="round" stroke-linejoin="round"/>
</g>
</g>
</svg>
