<svg width="39" height="40" viewBox="0 0 39 40" fill="none" xmlns="http://www.w3.org/2000/svg">
<path fill-rule="evenodd" clip-rule="evenodd" d="M12.193 27.9936C16.0391 27.0965 19.8842 29.4872 20.7813 33.3333C20.9044 33.8611 20.967 34.4008 20.9682 34.942L20.9575 35.348C17.1114 36.245 13.2663 33.8544 12.3692 30.0083C12.2461 29.4804 12.1835 28.9407 12.1823 28.3996L12.193 27.9936ZM11.4877 19.9343C15.3338 19.0373 19.1789 21.4279 20.076 25.274C20.1991 25.8019 20.2617 26.3416 20.2629 26.8827L20.2523 27.2887C16.4062 28.1857 12.5611 25.7951 11.664 21.949C11.5409 21.4211 11.4783 20.8814 11.4771 20.3403L11.4877 19.9343ZM10.7825 11.8751C14.6286 10.978 18.4737 13.3686 19.3708 17.2147C19.4939 17.7426 19.5565 18.2823 19.5577 18.8234L19.547 19.2294C15.7009 20.1265 11.8558 17.7358 10.9588 13.8897C10.8356 13.3619 10.773 12.8222 10.7719 12.281L10.7825 11.8751ZM26.9011 10.4651C27.7983 14.311 25.4079 18.1559 21.562 19.0531C21.0341 19.1762 20.4943 19.2389 19.9531 19.24L19.547 19.2294C18.6499 15.3835 21.0403 11.5386 24.8861 10.6414C25.4141 10.5183 25.9539 10.4556 26.4951 10.4545L26.9011 10.4651ZM27.6064 18.5244C28.5035 22.3703 26.1131 26.2152 22.2673 27.1124C21.7393 27.2355 21.1995 27.2982 20.6583 27.2993L20.2523 27.2887C19.3551 23.4428 21.7455 19.5979 25.5914 18.7007C26.1193 18.5775 26.6591 18.5149 27.2003 18.5138L27.6064 18.5244ZM28.3116 26.5837C29.2087 30.4295 26.8184 34.2745 22.9725 35.1717C22.4446 35.2948 21.9048 35.3574 21.3635 35.3586L20.9575 35.348C20.0604 31.5021 22.4507 27.6571 26.2966 26.76C26.8245 26.6368 27.3643 26.5742 27.9056 26.573L28.3116 26.5837ZM17.9905 1.44167C21.3446 3.52697 22.373 7.93611 20.2879 11.2899C20.0017 11.7502 19.6643 12.1762 19.2825 12.5597L18.9876 12.8391C15.6338 10.7539 14.6053 6.34478 16.6905 2.99098C17.0482 2.41555 17.486 1.8939 17.9905 1.44167Z" stroke="white" stroke-width="1.5" stroke-linecap="round"/>
</svg>
