<svg width="37" height="37" viewBox="0 0 37 37" fill="none" xmlns="http://www.w3.org/2000/svg">
<g clip-path="url(#clip0_1_1449)">
<path d="M15.2871 4.85889H22.7871M12.7484 16.1262L14.1415 13.9137C15.3632 11.9735 16.1485 9.79089 16.4429 7.51706L16.7871 4.85889H21.2871L21.5983 7.34846C21.8874 9.66095 22.677 11.8826 23.9121 13.8589L25.3311 16.1293C25.6291 16.6061 25.7871 17.157 25.7871 17.7193V28.8589C25.7871 30.5157 24.444 31.8589 22.7871 31.8589H15.2871C13.6303 31.8589 12.2871 30.5157 12.2871 28.8589V17.7247C12.2871 17.159 12.447 16.6049 12.7484 16.1262ZM12.2871 21.3589L13.2295 21.673C15.4576 22.4157 17.9082 22.018 19.7871 20.6089L20.1038 20.3713C21.657 19.2065 23.7058 18.9648 25.4775 19.716L25.7871 19.8589V28.8589C25.7871 30.5157 24.444 31.8589 22.7871 31.8589H15.2871C13.6303 31.8589 12.2871 30.5157 12.2871 28.8589V21.3589Z" stroke="white" stroke-width="1.5" stroke-linecap="round"/>
<line x1="-0.508386" y1="35.5634" x2="35.4916" y2="-0.436609" stroke="white" stroke-width="2.25"/>
</g>
<defs>
<clipPath id="clip0_1_1449">
<rect width="36" height="36" fill="white" transform="translate(0.287109 0.358887)"/>
</clipPath>
</defs>
</svg>
