<svg width="25" height="24" viewBox="0 0 25 24" fill="none" xmlns="http://www.w3.org/2000/svg">
<g clip-path="url(#clip0_295_1058)">
<g clip-path="url(#clip1_295_1058)">
<path d="M1.26953 12C1.26953 12 5.26953 4 12.2695 4C19.2695 4 23.2695 12 23.2695 12C23.2695 12 19.2695 20 12.2695 20C5.26953 20 1.26953 12 1.26953 12Z" stroke="#171E25" stroke-width="1.33333" stroke-linecap="round" stroke-linejoin="round"/>
<path d="M12.2695 15C13.9264 15 15.2695 13.6569 15.2695 12C15.2695 10.3431 13.9264 9 12.2695 9C10.6127 9 9.26953 10.3431 9.26953 12C9.26953 13.6569 10.6127 15 12.2695 15Z" stroke="#171E25" stroke-width="1.33333" stroke-linecap="round" stroke-linejoin="round"/>
</g>
</g>
<defs>
<clipPath id="clip0_295_1058">
<rect width="24" height="24" fill="white" transform="translate(0.269531)"/>
</clipPath>
<clipPath id="clip1_295_1058">
<rect width="24" height="24" fill="white" transform="translate(0.269531)"/>
</clipPath>
</defs>
</svg>
