<svg width="24" height="24" viewBox="0 0 24 24" fill="none" xmlns="http://www.w3.org/2000/svg">
<path d="M14.5581 13.5577C13.9186 14.6361 12.6763 15.2036 11.4425 14.9811C10.2087 14.7585 9.24295 13.7928 9.02042 12.559C8.79789 11.3251 9.36538 10.0829 10.4437 9.44336" stroke="#323232" stroke-width="1.5" stroke-linecap="round" stroke-linejoin="round"/>
<path d="M17.9966 16.9962C16.2718 18.3044 14.1648 19.0095 12 19.0029C8.41288 19.0668 5.09853 17.0954 3.44242 13.9128C2.84752 12.707 2.84752 11.293 3.44242 10.0872C4.27067 8.43785 5.59097 7.08659 7.22071 6.22034" stroke="#323232" stroke-width="1.5" stroke-linecap="round" stroke-linejoin="round"/>
<path d="M20.4273 14.1345C20.4675 14.0584 20.5197 13.9902 20.5576 13.9128C21.1525 12.7069 21.1525 11.293 20.5576 10.0872C18.9015 6.90458 15.5871 4.93317 12 4.99705C11.7751 4.99705 11.5565 5.02706 11.3345 5.04169" stroke="#323232" stroke-width="1.5" stroke-linecap="round" stroke-linejoin="round"/>
<path d="M21.0038 20.0033L3.99667 2.99622" stroke="#323232" stroke-width="1.5" stroke-linecap="round" stroke-linejoin="round"/>
</svg>
