<svg width="25" height="24" viewBox="0 0 25 24" fill="none" xmlns="http://www.w3.org/2000/svg">
<path fill-rule="evenodd" clip-rule="evenodd" d="M8.17178 2.99683H17.1808C19.6628 2.99683 21.6758 5.00883 21.6758 7.49283V16.5018C21.6758 18.9838 19.6638 20.9968 17.1798 20.9968H8.17178C5.68878 20.9968 3.67578 18.9848 3.67578 16.5008V7.49283C3.67578 5.00983 5.68778 2.99683 8.17178 2.99683V2.99683Z" stroke="white" stroke-width="1.5" stroke-linecap="round" stroke-linejoin="round"/>
<path d="M17.6245 6.70983C17.4385 6.71083 17.2875 6.86183 17.2875 7.04783C17.2875 7.23383 17.4395 7.38483 17.6255 7.38483C17.8115 7.38483 17.9625 7.23383 17.9625 7.04783C17.9635 6.86083 17.8115 6.70983 17.6245 6.70983" stroke="white" stroke-width="1.5" stroke-linecap="round" stroke-linejoin="round"/>
<path d="M15.2218 9.45124C16.6276 10.8571 16.6276 13.1365 15.2218 14.5424C13.8159 15.9483 11.5365 15.9483 10.1306 14.5424C8.7247 13.1365 8.7247 10.8571 10.1306 9.45124C11.5365 8.04535 13.8159 8.04535 15.2218 9.45124" stroke="white" stroke-width="1.5" stroke-linecap="round" stroke-linejoin="round"/>
</svg>
