<svg width="30" height="30" viewBox="0 0 30 30" fill="none" xmlns="http://www.w3.org/2000/svg">
<path fill-rule="evenodd" clip-rule="evenodd" d="M9.37 3.75H20.6313C23.7338 3.75 26.25 6.265 26.25 9.37V20.6313C26.25 23.7338 23.735 26.25 20.63 26.25H9.37C6.26625 26.25 3.75 23.735 3.75 20.63V9.37C3.75 6.26625 6.265 3.75 9.37 3.75V3.75Z" stroke="white" stroke-width="1.5" stroke-linecap="round" stroke-linejoin="round"/>
<path d="M21.1859 8.39111C20.9534 8.39236 20.7646 8.58111 20.7646 8.81361C20.7646 9.04611 20.9546 9.23486 21.1871 9.23486C21.4196 9.23486 21.6084 9.04611 21.6084 8.81361C21.6096 8.57986 21.4196 8.39111 21.1859 8.39111" stroke="white" stroke-width="1.5" stroke-linecap="round" stroke-linejoin="round"/>
<path d="M18.182 11.818C19.9393 13.5754 19.9393 16.4246 18.182 18.182C16.4246 19.9393 13.5754 19.9393 11.818 18.182C10.0607 16.4246 10.0607 13.5754 11.818 11.818C13.5754 10.0607 16.4246 10.0607 18.182 11.818" stroke="white" stroke-width="1.5" stroke-linecap="round" stroke-linejoin="round"/>
</svg>
