<svg width="25" height="30" viewBox="0 0 25 30" fill="none" xmlns="http://www.w3.org/2000/svg">
<path d="M7.2714 25.3105C10.6619 25.7247 13.9425 26.6867 17.0158 28.1513C17.2059 28.2417 17.1111 28.0422 17.0821 27.959C17.0066 27.7436 16.7553 27.5268 16.5881 27.3905C14.2222 25.4788 11.5035 24.0768 8.55684 23.273C6.88772 22.8207 5.16258 22.5653 3.432 22.5142C2.89881 22.5 2.36633 22.5007 1.83502 22.5263C1.64455 22.5354 1.38602 22.5927 1.19799 22.547L1.57152 22.7977C1.71262 23.0199 1.85873 23.2418 2.00006 23.4689C2.0751 23.3558 2.5205 23.3194 2.63006 23.2992C3.18246 23.1881 3.74174 23.1164 4.30195 23.0645C6.02771 22.9069 7.78381 22.9667 9.49532 23.2527C13.3842 23.9017 16.8561 25.8299 19.4655 28.7501C19.4762 28.7645 20.0219 29.2558 20.013 29.0672C19.8292 25.3833 19.9915 21.6878 20.5278 18.039C20.8056 16.1544 21.1746 14.2854 21.6453 12.4413C22.1536 10.4361 23.1172 8.49866 23.8858 6.58052C23.9757 6.35722 23.1676 5.52019 23.0389 5.66573C20.2385 8.81627 17.778 12.2491 15.6951 15.9125L16.5369 16.7181C15.4423 13.8544 15.428 10.675 16.503 7.79657C16.5963 7.53827 15.7309 6.76373 15.656 6.8818C14.1014 9.39015 12.5471 11.9035 10.9924 14.4118L11.6333 14.8986C8.72322 11.1418 7.27971 6.41875 7.41359 1.69444L6.54056 0.865519C8.09638 7.544 7.06846 14.6155 3.63712 20.5783C3.48365 20.8395 4.43313 21.5851 4.48405 21.4931C7.92925 15.5047 8.97584 8.40247 7.41861 1.6942C7.36179 1.4481 7.15554 1.2291 6.97192 1.06374C6.92994 1.02595 6.54763 0.695972 6.54056 0.865519C6.39777 5.93364 8.09626 10.8435 11.199 14.8498C11.2152 14.8739 11.7557 15.47 11.8398 15.3365C13.3945 12.8282 14.9488 10.3149 16.5035 7.80651L15.6565 6.89172C14.5502 9.8513 14.5673 13.0903 15.6959 16.0369C15.7414 16.1492 16.4402 17.0114 16.5377 16.8425C18.6159 13.1842 21.0763 9.7514 23.8815 6.59565L23.0345 5.68087C22.648 6.64502 22.2614 7.60918 21.8796 8.56813C21.5289 9.44098 21.1081 10.3172 20.8695 11.2245C20.3764 13.1244 19.9796 15.0446 19.6843 16.9847C19.1217 20.7144 18.9431 24.4903 19.1354 28.2484L19.6829 28.5655C17.0098 25.5737 13.5844 23.3546 9.61536 22.4954C7.67651 22.0761 5.67152 21.9585 3.69514 22.1283C3.06977 22.1832 2.44532 22.258 1.83348 22.387C1.69908 22.4134 1.24342 22.4452 1.15882 22.5688C1.04625 22.7384 1.50842 23.1641 1.58758 23.2449C2.0459 23.6956 2.82873 23.4639 3.42136 23.4602C4.97824 23.4501 6.53306 23.6092 8.05503 23.9241C11.2667 24.5958 14.2964 25.9879 16.8398 28.0403L16.412 27.2796C13.2975 25.792 9.96578 24.8126 6.52973 24.3907C6.34788 24.3695 6.66993 24.8069 6.69115 24.8308C6.81941 24.9938 7.05971 25.2958 7.28714 25.3247L7.2714 25.3105Z" fill="#561195"/>
<path d="M8.29528 16.4338C8.79335 16.9767 9.10555 17.6452 9.39565 18.3412C9.54353 18.6997 9.69217 19.074 9.75754 19.4682C9.79726 19.7153 9.81713 20.0376 9.63866 20.221C9.55839 20.3043 9.44838 20.352 9.37053 20.3875C9.28602 20.381 9.3752 20.3873 9.37053 20.3875C9.45504 20.3941 9.52479 20.3854 9.61914 20.4021C9.6098 20.4025 9.73706 20.4229 9.73264 20.4284C9.73264 20.4284 9.71373 20.424 9.69406 20.4038C9.47948 20.2181 9.51169 19.9092 9.57881 19.6464C9.72116 19.0938 10.0363 18.6336 10.4569 18.3273C10.6965 18.1515 10.962 18.0274 11.2338 17.9402C11.2891 17.9216 11.3446 17.9084 11.3999 17.8898C11.3999 17.8898 11.5015 17.8637 11.446 17.877C11.3999 17.8898 11.4924 17.8695 11.5015 17.8637C11.5848 17.8438 11.673 17.829 11.7567 17.8197C11.7801 17.8186 11.9287 17.7955 11.9303 17.7319C11.932 17.6682 11.7851 17.6276 11.7659 17.6179C11.5045 17.5298 11.2095 17.5228 10.94 17.5623C9.84354 17.721 8.66556 18.3339 8.38668 19.6613C8.31838 19.9984 8.37509 20.3083 8.65918 20.48C8.85161 20.5926 9.07837 20.64 9.29014 20.6669C9.582 20.7059 9.89104 20.7122 10.1831 20.6558C10.4751 20.5993 10.7963 20.4673 10.902 20.1284C11.0076 19.7896 10.8793 19.3507 10.77 19.0168C10.6063 18.5214 10.3871 18.0392 10.1687 17.5729C9.97112 17.1532 9.71464 16.7735 9.41399 16.4489C9.35499 16.3881 9.2179 16.3576 9.15181 16.3449C9.00538 16.3149 8.85012 16.2958 8.70052 16.2977C8.65385 16.3 8.17803 16.3282 8.28644 16.4448L8.29528 16.4338Z" fill="#561195"/>
<path d="M14.9086 18.5436C15.0491 20.0417 15.3901 21.5153 15.9348 22.8701C16.0225 23.0837 16.2349 23.3953 16.4495 23.3404C16.6641 23.2855 16.5879 22.9031 16.5181 22.7381C16.0479 21.5678 15.7581 20.2749 15.634 18.9592C15.6089 18.6733 15.4315 18.365 15.2206 18.2514C15.0295 18.1468 14.8808 18.2826 14.9086 18.5436Z" fill="#561195"/>
<path d="M14.6117 21.8669C14.783 21.7581 14.965 21.6563 15.1527 21.5653C15.234 21.5279 15.3152 21.4905 15.4017 21.4528C15.4272 21.4442 15.4474 21.432 15.4729 21.4233C15.3863 21.4573 15.3761 21.4615 15.4374 21.4399C15.4885 21.4226 15.5344 21.4055 15.5854 21.3881C15.7693 21.3272 15.9588 21.2734 16.1488 21.2307C16.1745 21.2258 16.2002 21.2208 16.2259 21.2158C16.1231 21.2357 16.1025 21.2404 16.1745 21.2258C16.2259 21.2158 16.2775 21.2096 16.3289 21.1997C16.4319 21.1836 16.5351 21.1712 16.6385 21.1625C16.9329 21.1334 17.2708 20.9273 17.208 20.6957C17.1452 20.4641 16.8179 20.3458 16.4976 20.3761C15.5213 20.4678 14.587 20.792 13.8413 21.2635C13.7204 21.3401 13.6201 21.4156 13.5893 21.5325C13.563 21.6343 13.6102 21.755 13.7071 21.8285C13.9219 21.982 14.3599 22.0279 14.6117 21.8669Z" fill="#561195"/>
</svg>
