<svg width="25" height="30" viewBox="0 0 25 30" fill="none" xmlns="http://www.w3.org/2000/svg">
<g id="Group 100">
<path id="Vector" d="M7.14445 25.3105C10.5349 25.7247 13.8156 26.6867 16.8888 28.1513C17.079 28.2417 16.9842 28.0422 16.9551 27.959C16.8797 27.7436 16.6283 27.5268 16.4611 27.3905C14.0952 25.4788 11.3765 24.0768 8.42989 23.273C6.76077 22.8207 5.03562 22.5653 3.30504 22.5142C2.77186 22.5 2.23938 22.5007 1.70807 22.5263C1.5176 22.5354 1.25907 22.5927 1.07103 22.547L1.44457 22.7977C1.58566 23.0199 1.73177 23.2418 1.8731 23.4689C1.94815 23.3558 2.39354 23.3194 2.50311 23.2992C3.0555 23.1881 3.61479 23.1164 4.175 23.0645C5.90076 22.9069 7.65686 22.9667 9.36837 23.2527C13.2572 23.9017 16.7291 25.8299 19.3385 28.7501C19.3493 28.7645 19.8949 29.2558 19.886 29.0672C19.7022 25.3833 19.8645 21.6878 20.4008 18.039C20.6787 16.1544 21.0477 14.2854 21.5183 12.4413C22.0266 10.4361 22.9902 8.49866 23.7588 6.58052C23.8488 6.35722 23.0407 5.52019 22.9119 5.66573C20.1115 8.81627 17.651 12.2491 15.5682 15.9125L16.4099 16.7181C15.3153 13.8544 15.3011 10.675 16.376 7.79657C16.4693 7.53827 15.6039 6.76373 15.5291 6.8818C13.9745 9.39015 12.4201 11.9035 10.8655 14.4118L11.5064 14.8986C8.59627 11.1418 7.15276 6.41875 7.28664 1.69444L6.41361 0.865519C7.96943 7.544 6.9415 14.6155 3.51016 20.5783C3.3567 20.8395 4.30617 21.5851 4.35709 21.4931C7.8023 15.5047 8.84889 8.40247 7.29166 1.6942C7.23484 1.4481 7.02859 1.2291 6.84496 1.06374C6.80299 1.02595 6.42068 0.695972 6.41361 0.865519C6.27082 5.93364 7.96931 10.8435 11.072 14.8498C11.0882 14.8739 11.6288 15.47 11.7129 15.3365C13.2675 12.8282 14.8219 10.3149 16.3765 7.80651L15.5296 6.89172C14.4232 9.8513 14.4404 13.0903 15.569 16.0369C15.6145 16.1492 16.3133 17.0114 16.4108 16.8425C18.4889 13.1842 20.9494 9.7514 23.7545 6.59565L22.9076 5.68087C22.521 6.64502 22.1345 7.60918 21.7527 8.56813C21.402 9.44098 20.9811 10.3172 20.7426 11.2245C20.2494 13.1244 19.8527 15.0446 19.5573 16.9847C18.9947 20.7144 18.8161 24.4903 19.0084 28.2484L19.5559 28.5655C16.8828 25.5737 13.4575 23.3546 9.48841 22.4954C7.54956 22.0761 5.54456 21.9585 3.56819 22.1283C2.94281 22.1832 2.31837 22.258 1.70653 22.387C1.57213 22.4134 1.11647 22.4452 1.03186 22.5688C0.919294 22.7384 1.38146 23.1641 1.46063 23.2449C1.91895 23.6956 2.70178 23.4639 3.29441 23.4602C4.85129 23.4501 6.4061 23.6092 7.92808 23.9241C11.1398 24.5958 14.1694 25.9879 16.7128 28.0403L16.2851 27.2796C13.1705 25.792 9.83882 24.8126 6.40277 24.3907C6.22092 24.3695 6.54298 24.8069 6.5642 24.8308C6.69245 24.9938 6.93276 25.2958 7.16019 25.3247L7.14445 25.3105Z" fill="#561195"/>
<path id="Vector_2" d="M8.16833 16.4338C8.6664 16.9767 8.97859 17.6452 9.2687 18.3412C9.41658 18.6997 9.56521 19.074 9.63058 19.4682C9.67031 19.7153 9.69017 20.0376 9.51171 20.221C9.43144 20.3043 9.32142 20.352 9.24357 20.3875C9.15907 20.381 9.24824 20.3873 9.24357 20.3875C9.32808 20.3941 9.39784 20.3854 9.49218 20.4021C9.48285 20.4025 9.61011 20.4229 9.60569 20.4284C9.60569 20.4284 9.58678 20.424 9.56711 20.4038C9.35253 20.2181 9.38473 19.9092 9.45186 19.6464C9.5942 19.0938 9.90931 18.6336 10.3299 18.3273C10.5695 18.1515 10.835 18.0274 11.1069 17.9402C11.1621 17.9216 11.2176 17.9084 11.2729 17.8898C11.2729 17.8898 11.3746 17.8637 11.3191 17.877C11.2729 17.8898 11.3655 17.8695 11.3746 17.8637C11.4578 17.8438 11.546 17.829 11.6298 17.8197C11.6531 17.8186 11.8017 17.7955 11.8034 17.7319C11.8051 17.6682 11.6581 17.6276 11.639 17.6179C11.3775 17.5298 11.0825 17.5228 10.8131 17.5623C9.71659 17.721 8.53861 18.3339 8.25973 19.6613C8.19143 19.9984 8.24814 20.3083 8.53223 20.48C8.72465 20.5926 8.95142 20.64 9.16319 20.6669C9.45505 20.7059 9.76409 20.7122 10.0561 20.6558C10.3482 20.5993 10.6694 20.4673 10.775 20.1284C10.8807 19.7896 10.7524 19.3507 10.6431 19.0168C10.4794 18.5214 10.2602 18.0392 10.0417 17.5729C9.84417 17.1532 9.58769 16.7735 9.28703 16.4489C9.22803 16.3881 9.09095 16.3576 9.02486 16.3449C8.87843 16.3149 8.72317 16.2958 8.57357 16.2977C8.52689 16.3 8.05107 16.3282 8.15949 16.4448L8.16833 16.4338Z" fill="#561195"/>
<path id="Vector_3" d="M14.7817 18.5436C14.9221 20.0417 15.2631 21.5153 15.8079 22.8701C15.8955 23.0837 16.108 23.3953 16.3226 23.3404C16.5371 23.2855 16.4609 22.9031 16.3911 22.7381C15.921 21.5678 15.6312 20.2749 15.5071 18.9592C15.482 18.6733 15.3046 18.365 15.0937 18.2514C14.9026 18.1468 14.7539 18.2826 14.7817 18.5436Z" fill="#561195"/>
<path id="Vector_4" d="M14.4853 21.8668C14.6566 21.758 14.8386 21.6562 15.0263 21.5652C15.1075 21.5278 15.1888 21.4904 15.2752 21.4527C15.3007 21.444 15.3209 21.4319 15.3465 21.4232C15.2599 21.4572 15.2497 21.4614 15.3109 21.4398C15.362 21.4225 15.4079 21.4054 15.459 21.388C15.6429 21.327 15.8323 21.2732 16.0223 21.2306C16.048 21.2256 16.0737 21.2207 16.0994 21.2157C15.9966 21.2356 15.9761 21.2403 16.048 21.2256C16.0994 21.2157 16.151 21.2095 16.2024 21.1996C16.3055 21.1835 16.4087 21.1711 16.512 21.1624C16.8064 21.1333 17.1444 20.9271 17.0815 20.6956C17.0187 20.464 16.6914 20.3457 16.3712 20.376C15.3948 20.4677 14.4605 20.7919 13.7148 21.2634C13.5939 21.34 13.4937 21.4155 13.4629 21.5324C13.4365 21.6342 13.4837 21.7548 13.5806 21.8284C13.7954 21.9819 14.2334 22.0278 14.4853 21.8668Z" fill="#561195"/>
</g>
</svg>
