<svg width="34" height="58" viewBox="0 0 34 58" fill="none" xmlns="http://www.w3.org/2000/svg">
<path fill-rule="evenodd" clip-rule="evenodd" d="M14 49V49C12.343 49 11 47.657 11 46V46C11 44.343 12.343 43 14 43V43C15.657 43 17 44.343 17 46V46C17 47.657 15.657 49 14 49Z" stroke="#EA4038" stroke-width="1.5" stroke-linecap="round" stroke-linejoin="round"/>
<path fill-rule="evenodd" clip-rule="evenodd" d="M14 57C14 57 7 51.25 7 46C7 42.134 10.134 39 14 39C17.866 39 21 42.134 21 46C21 51.25 14 57 14 57Z" stroke="#EA4038" stroke-width="1.5" stroke-linecap="round" stroke-linejoin="round"/>
<path d="M9.73519 34.1514C14.3551 34.7102 18.8254 36.0082 23.0131 37.9843C23.2722 38.1063 23.143 37.8371 23.1035 37.7249C23.0006 37.4343 22.6581 37.1417 22.4303 36.9579C19.2065 34.3785 15.5019 32.4867 11.4868 31.4021C9.21239 30.792 6.86166 30.4473 4.50353 30.3783C3.777 30.3592 3.05143 30.3602 2.32746 30.3947C2.06792 30.407 1.71564 30.4842 1.45942 30.4226L1.96841 30.7609C2.16066 31.0607 2.35976 31.3601 2.55233 31.6665C2.65459 31.5139 3.2615 31.4648 3.4108 31.4376C4.1635 31.2876 4.92559 31.1909 5.68896 31.1209C8.04051 30.9082 10.4334 30.989 12.7656 31.3748C18.0646 32.2505 22.7955 34.8522 26.3511 38.7923C26.3658 38.8118 27.1093 39.4747 27.0971 39.2201C26.8467 34.2496 27.0679 29.2634 27.7986 24.3401C28.1772 21.7973 28.6801 19.2754 29.3214 16.7873C30.014 14.0818 31.3271 11.4676 32.3744 8.87949C32.4969 8.5782 31.3958 7.44882 31.2203 7.64519C27.4045 11.8961 24.0517 16.5279 21.2135 21.4709L22.3606 22.5578C20.8691 18.694 20.8496 14.4041 22.3144 10.5203C22.4415 10.1718 21.2622 9.1267 21.1603 9.286C19.042 12.6705 16.9239 16.0616 14.8056 19.4461L15.6788 20.1028C11.7135 15.0339 9.74651 8.66121 9.92895 2.28684L8.73933 1.1684C10.8593 10.1795 9.45866 19.7209 4.78303 27.7664C4.57392 28.1188 5.86769 29.1248 5.93708 29.0007C10.6316 20.9207 12.0577 11.3378 9.93579 2.28651C9.85836 1.95446 9.57732 1.65896 9.32711 1.43586C9.26991 1.38486 8.74897 0.939632 8.73933 1.1684C8.54476 8.00667 10.8592 14.6314 15.087 20.037C15.1091 20.0695 15.8456 20.8738 15.9603 20.6937C18.0786 17.3093 20.1967 13.9181 22.315 10.5337L21.1609 9.29939C19.6535 13.2927 19.6768 17.6629 21.2147 21.6387C21.2767 21.7902 22.2288 22.9536 22.3617 22.7256C25.1934 17.7897 28.5461 13.1579 32.3685 8.89991L31.2144 7.66561C30.6877 8.96652 30.1609 10.2674 29.6407 11.5613C29.1628 12.739 28.5894 13.9213 28.2643 15.1455C27.5923 17.709 27.0517 20.2998 26.6493 22.9176C25.8827 27.95 25.6393 33.0447 25.9013 38.1154L26.6473 38.5432C23.005 34.5064 18.3375 31.5123 12.9291 30.3531C10.2872 29.7873 7.55515 29.6286 4.8621 29.8576C4.00995 29.9318 3.15906 30.0327 2.32536 30.2067C2.14222 30.2423 1.52132 30.2853 1.40604 30.452C1.25265 30.6809 1.88241 31.2552 1.99029 31.3642C2.61481 31.9724 3.68151 31.6597 4.48904 31.6548C6.61048 31.6411 8.72911 31.8558 10.803 32.2808C15.1793 33.187 19.3076 35.0653 22.7733 37.8346L22.1904 36.8081C17.9465 34.8011 13.4066 33.4796 8.72457 32.9102C8.47678 32.8817 8.91561 33.4719 8.94453 33.5041C9.1193 33.7241 9.44674 34.1315 9.75664 34.1705L9.73519 34.1514Z" fill="#561195"/>
<path d="M11.1307 22.1739C11.8093 22.9065 12.2348 23.8084 12.6301 24.7475C12.8316 25.2312 13.0341 25.7363 13.1232 26.2682C13.1773 26.6016 13.2044 27.0364 12.9612 27.2839C12.8518 27.3963 12.7019 27.4607 12.5958 27.5086C12.6022 27.5083 12.4807 27.4998 12.5958 27.5086C12.711 27.5174 12.806 27.5057 12.9346 27.5282C12.9219 27.5288 13.0953 27.5563 13.0892 27.5637C13.0892 27.5637 13.0635 27.5578 13.0367 27.5305C12.7443 27.2799 12.7882 26.8632 12.8796 26.5086C13.0736 25.763 13.503 25.142 14.0761 24.7287C14.4026 24.4915 14.7643 24.3242 15.1348 24.2065C15.2101 24.1814 15.2857 24.1635 15.361 24.1385C15.361 24.1385 15.4996 24.1033 15.4239 24.1212C15.361 24.1385 15.4872 24.111 15.4996 24.1033C15.613 24.0765 15.7332 24.0564 15.8473 24.0439C15.8791 24.0423 16.0816 24.0113 16.0839 23.9254C16.0862 23.8395 15.886 23.7847 15.8599 23.7716C15.5036 23.6527 15.1016 23.6433 14.7344 23.6965C13.2404 23.9107 11.6352 24.7377 11.2552 26.5287C11.1621 26.9835 11.2394 27.4016 11.6265 27.6334C11.8887 27.7853 12.1977 27.8493 12.4863 27.8856C12.884 27.9381 13.3051 27.9466 13.703 27.8705C14.101 27.7944 14.5387 27.6162 14.6826 27.159C14.8266 26.7018 14.6518 26.1096 14.5028 25.6592C14.2798 24.9907 13.9811 24.34 13.6834 23.7108C13.4142 23.1446 13.0647 22.6323 12.655 22.1942C12.5746 22.1123 12.3878 22.0711 12.2978 22.054C12.0983 22.0134 11.8867 21.9878 11.6829 21.9903C11.6193 21.9934 10.9709 22.0314 11.1186 22.1888L11.1307 22.1739Z" fill="#561195"/>
<path d="M20.1423 25.0209C20.3336 27.0422 20.7982 29.0305 21.5406 30.8586C21.66 31.1467 21.9495 31.5671 22.2419 31.4931C22.5343 31.419 22.4304 30.903 22.3353 30.6804C21.6947 29.1013 21.2998 27.3569 21.1307 25.5816C21.0965 25.1959 20.8547 24.7799 20.5674 24.6267C20.307 24.4854 20.1043 24.6687 20.1423 25.0209Z" fill="#561195"/>
<path d="M19.7377 29.504C19.9711 29.3573 20.2191 29.2199 20.4748 29.0971C20.5856 29.0466 20.6963 28.9962 20.8141 28.9453C20.8489 28.9336 20.8764 28.9172 20.9112 28.9055C20.7931 28.9514 20.7793 28.957 20.8627 28.928C20.9323 28.9045 20.9949 28.8815 21.0644 28.8581C21.3151 28.7758 21.5732 28.7032 21.8321 28.6457C21.8671 28.639 21.9021 28.6323 21.9372 28.6256C21.797 28.6523 21.7691 28.6587 21.8671 28.639C21.9372 28.6256 22.0075 28.6172 22.0775 28.6038C22.2179 28.5821 22.3585 28.5653 22.4994 28.5536C22.9005 28.5144 23.361 28.2362 23.2754 27.9238C23.1898 27.6113 22.7438 27.4517 22.3074 27.4926C20.977 27.6163 19.704 28.0537 18.6878 28.6899C18.5231 28.7932 18.3865 28.8952 18.3445 29.0529C18.3086 29.1903 18.373 29.353 18.505 29.4522C18.7976 29.6593 19.3945 29.7213 19.7377 29.504Z" fill="#561195"/>
</svg>
