<svg width="20" height="21" viewBox="0 0 20 21" fill="none" xmlns="http://www.w3.org/2000/svg">
<path d="M6.00179 20.5C5.45162 20.5 4.98082 20.3043 4.58937 19.913C4.19725 19.521 4.00119 19.05 4.00119 18.5C4.00119 17.95 4.19725 17.479 4.58937 17.087C4.98082 16.6957 5.45162 16.5 6.00179 16.5C6.55195 16.5 7.02276 16.6957 7.41421 17.087C7.80632 17.479 8.00238 17.95 8.00238 18.5C8.00238 19.05 7.80632 19.521 7.41421 19.913C7.02276 20.3043 6.55195 20.5 6.00179 20.5ZM16.0048 20.5C15.4546 20.5 14.9838 20.3043 14.5923 19.913C14.2002 19.521 14.0042 19.05 14.0042 18.5C14.0042 17.95 14.2002 17.479 14.5923 17.087C14.9838 16.6957 15.4546 16.5 16.0048 16.5C16.5549 16.5 17.0261 16.6957 17.4182 17.087C17.8096 17.479 18.0054 17.95 18.0054 18.5C18.0054 19.05 17.8096 19.521 17.4182 19.913C17.0261 20.3043 16.5549 20.5 16.0048 20.5ZM5.15153 4.5L7.55225 9.5H14.5543L17.3051 4.5H5.15153ZM6.00179 15.5C5.25156 15.5 4.68473 15.1707 4.30128 14.512C3.91783 13.854 3.90116 13.2 4.25127 12.55L5.60167 10.1L2.0006 2.5H0.97529C0.691873 2.5 0.45847 2.404 0.275082 2.212C0.0916939 2.02067 0 1.78333 0 1.5C0 1.21667 0.0960286 0.979 0.288086 0.787C0.479476 0.595667 0.71688 0.5 1.0003 0.5H2.62578C2.80917 0.5 2.98422 0.55 3.15094 0.65C3.31765 0.75 3.44269 0.891667 3.52605 1.075L4.20125 2.5H18.9556C19.4058 2.5 19.7142 2.66667 19.8809 3C20.0476 3.33333 20.0393 3.68333 19.8559 4.05L16.3049 10.45C16.1215 10.7833 15.8797 11.0417 15.5796 11.225C15.2795 11.4083 14.9378 11.5 14.5543 11.5H7.10211L6.00179 13.5H17.0301C17.3135 13.5 17.5469 13.5957 17.7303 13.787C17.9137 13.979 18.0054 14.2167 18.0054 14.5C18.0054 14.7833 17.9093 15.0207 17.7173 15.212C17.5259 15.404 17.2885 15.5 17.0051 15.5H6.00179Z" fill="white"/>
</svg>
