<svg width="30" height="30" viewBox="0 0 30 30" fill="none" xmlns="http://www.w3.org/2000/svg">
<circle cx="15" cy="15" r="14.5" stroke="#EA4038"/>
<path d="M11 12H10C9.46957 12 8.96086 12.2107 8.58579 12.5858C8.21071 12.9609 8 13.4696 8 14V22C8 22.5304 8.21071 23.0391 8.58579 23.4142C8.96086 23.7893 9.46957 24 10 24H20C20.5304 24 21.0391 23.7893 21.4142 23.4142C21.7893 23.0391 22 22.5304 22 22V14C22 13.4696 21.7893 12.9609 21.4142 12.5858C21.0391 12.2107 20.5304 12 20 12H19M15 17V6M15 6L12 9M15 6L18 9" stroke="#EA4038" stroke-width="2" stroke-linecap="round" stroke-linejoin="round"/>
</svg>
