<svg width="27" height="23" viewBox="0 0 27 23" fill="none" xmlns="http://www.w3.org/2000/svg">
<path d="M11.9242 5.01836C9.07422 5.46836 6.89922 7.49336 6.89922 9.59336C6.89922 11.9184 12.4492 11.4684 12.4492 16.7184C12.4492 19.2684 10.4992 22.1184 7.12422 22.1184C3.14922 22.1184 0.599219 18.8934 0.599219 13.7934C0.599219 7.04336 5.09922 1.56836 11.9242 0.293355V5.01836ZM26.3242 5.01836C23.4742 5.46836 21.2992 7.49336 21.2992 9.59336C21.2992 11.9184 26.8492 11.4684 26.8492 16.7184C26.8492 19.2684 24.8992 22.1184 21.5242 22.1184C17.5492 22.1184 14.9992 18.8934 14.9992 13.7934C14.9992 7.04336 19.4992 1.56836 26.3242 0.293355V5.01836Z" fill="#F4D5C4" fill-opacity="0.6"/>
</svg>
