<svg width="39" height="33" viewBox="0 0 39 33" fill="none" xmlns="http://www.w3.org/2000/svg">
<path d="M22.1466 7.41C26.3266 8.06999 29.5166 11.04 29.5166 14.12C29.5166 17.53 21.3766 16.87 21.3766 24.57C21.3766 28.31 24.2366 32.49 29.1866 32.49C35.0166 32.49 38.7566 27.76 38.7566 20.28C38.7566 10.38 32.1566 2.35 22.1466 0.479994V7.41ZM1.02656 7.41C5.20656 8.06999 8.39656 11.04 8.39656 14.12C8.39656 17.53 0.256562 16.87 0.256562 24.57C0.256562 28.31 3.11656 32.49 8.06656 32.49C13.8966 32.49 17.6366 27.76 17.6366 20.28C17.6366 10.38 11.0366 2.35 1.02656 0.479994V7.41Z" fill="#F4D5C4" fill-opacity="0.6"/>
</svg>
