<svg width="50" height="50" viewBox="0 0 50 50" fill="none" xmlns="http://www.w3.org/2000/svg">
<path fill-rule="evenodd" clip-rule="evenodd" d="M36.1438 13.1165L34.8515 7.56317L28.9735 8.08584L24.5186 4.33325L20.078 8.08584L14.1857 7.56317L12.877 13.1165L7.32367 14.4089L7.84633 20.2868L4.09375 24.7418L7.84633 29.1824L7.32367 35.0746L12.877 36.3833L14.1694 41.9367L20.0473 41.414L24.5023 45.1666L28.9429 41.414L34.8351 41.9367L36.1438 36.3833L41.6972 35.091L41.1745 29.213L44.9271 24.7581L41.1745 20.3175L41.6972 14.4252L36.1438 13.1165Z" stroke="white" stroke-linecap="round" stroke-linejoin="round"/>
<path d="M18.3857 30.875L30.6357 18.625" stroke="white" stroke-linecap="round" stroke-linejoin="round"/>
<path d="M18.8938 18.6249C18.612 18.6249 18.3834 18.8536 18.3854 19.1353C18.3854 19.4171 18.6141 19.6458 18.8958 19.6458C19.1776 19.6458 19.4063 19.4171 19.4063 19.1353C19.4063 18.8536 19.1776 18.6249 18.8938 18.6249" stroke="white" stroke-linecap="round" stroke-linejoin="round"/>
<path d="M30.1233 29.8542C29.8415 29.8542 29.6129 30.0828 29.6149 30.3646C29.6149 30.6463 29.8436 30.875 30.1253 30.875C30.4071 30.875 30.6357 30.6463 30.6357 30.3646C30.6357 30.0828 30.4071 29.8542 30.1233 29.8542" stroke="white" stroke-linecap="round" stroke-linejoin="round"/>
</svg>
