<svg width="20" height="21" viewBox="0 0 20 21" fill="none" xmlns="http://www.w3.org/2000/svg">
<path fill-rule="evenodd" clip-rule="evenodd" d="M15.1534 14.1581C16.4727 12.4566 17.0944 10.3163 16.8922 8.17244C16.69 6.02862 15.6789 4.0424 14.0648 2.61786C12.4506 1.19331 10.3546 0.437454 8.20313 0.504055C6.05167 0.570657 4.00638 1.45471 2.48335 2.97638C0.959004 4.49909 0.0724087 6.54599 0.00424256 8.69994C-0.0639235 10.8539 0.69147 12.9528 2.11649 14.5689C3.5415 16.1851 5.52889 17.1968 7.67366 17.3979C9.81843 17.5991 11.9592 16.9745 13.6596 15.6515L13.7051 15.6991L18.1929 20.1898C18.2912 20.2882 18.4079 20.3662 18.5364 20.4194C18.6648 20.4726 18.8024 20.5 18.9415 20.5C19.0805 20.5 19.2181 20.4726 19.3465 20.4194C19.475 20.3662 19.5917 20.2882 19.69 20.1898C19.7883 20.0915 19.8662 19.9748 19.9194 19.8463C19.9726 19.7178 20 19.5801 20 19.441C20 19.302 19.9726 19.1643 19.9194 19.0358C19.8662 18.9073 19.7883 18.7906 19.69 18.6922L15.201 14.2026C15.1856 14.1873 15.1697 14.1725 15.1534 14.1581ZM12.9571 4.47398C13.5544 5.06189 14.0295 5.76229 14.3549 6.53479C14.6803 7.30728 14.8496 8.13659 14.853 8.97486C14.8564 9.81313 14.6939 10.6438 14.3748 11.4189C14.0557 12.194 13.5863 12.8983 12.9938 13.491C12.4013 14.0838 11.6973 14.5533 10.9225 14.8725C10.1477 15.1918 9.31739 15.3543 8.47945 15.3509C7.64151 15.3475 6.81254 15.1782 6.04035 14.8526C5.26816 14.5271 4.56804 14.0519 3.98036 13.4543C2.80594 12.2601 2.15079 10.6501 2.15761 8.97486C2.16443 7.29964 2.83267 5.69497 4.01677 4.5104C5.20087 3.32583 6.80489 2.65732 8.47945 2.6505C10.154 2.64368 11.7634 3.2991 12.9571 4.47398Z" fill="white"/>
</svg>
