<svg width="21" height="20" viewBox="0 0 21 20" fill="none" xmlns="http://www.w3.org/2000/svg">
<path fill-rule="evenodd" clip-rule="evenodd" d="M0.846025 0.245067C0.995293 0.1154 1.17965 0.032893 1.3758 0.00797416C1.57194 -0.0169447 1.77108 0.0168431 1.94802 0.105067L19.948 9.10507C20.1144 9.188 20.2544 9.31569 20.3523 9.47379C20.4501 9.63189 20.502 9.81414 20.502 10.0001C20.502 10.186 20.4501 10.3682 20.3523 10.5263C20.2544 10.6844 20.1144 10.8121 19.948 10.8951L1.94802 19.8951C1.77109 19.9836 1.57187 20.0177 1.37557 19.9929C1.17927 19.9682 0.994721 19.8858 0.845268 19.7562C0.695816 19.6265 0.58818 19.4554 0.535981 19.2646C0.483782 19.0738 0.489365 18.8717 0.552025 18.6841L3.11402 11.0001H8.50102C8.76624 11.0001 9.02059 10.8947 9.20813 10.7072C9.39567 10.5196 9.50102 10.2653 9.50102 10.0001C9.50102 9.73485 9.39567 9.4805 9.20813 9.29296C9.02059 9.10542 8.76624 9.00007 8.50102 9.00007H3.11402L0.551025 1.31607C0.488688 1.12848 0.483346 0.926623 0.535674 0.736C0.588002 0.545377 0.696652 0.374539 0.846025 0.245067Z" fill="#240343"/>
</svg>
