<svg width="51" height="50" viewBox="0 0 51 50" fill="none" xmlns="http://www.w3.org/2000/svg">
<path d="M43.8835 43.1326H7.11816" stroke="white" stroke-linecap="round" stroke-linejoin="round"/>
<path d="M34 31.25H17" stroke="white" stroke-linecap="round" stroke-linejoin="round"/>
<path d="M25.5008 4.32474V2.28223" stroke="white" stroke-linecap="round" stroke-linejoin="round"/>
<path d="M9 43.1325V43.1325C15.6877 35.1074 20.1178 25.4462 21.8352 15.1419L22.2764 12.4948L21.4707 10.8835C21.3289 10.5999 21.2551 10.2872 21.2551 9.97008V7.38848L25.3401 4.32471L29.4252 7.38848V9.97008C29.4252 10.2872 29.3513 10.5999 29.2095 10.8835L28.4039 12.4948L28.8451 15.1419C30.5625 25.4462 34.9926 35.1074 41.6803 43.1325V43.1325" stroke="white" stroke-linecap="round" stroke-linejoin="round"/>
<path d="M30.5 22.25L20.5 22.25" stroke="white" stroke-linecap="round" stroke-linejoin="round"/>
<path d="M17.3301 43.1327L18.3205 41.1519C19.0054 39.7819 20.0933 38.6545 21.4379 37.9211V37.9211C22.5398 37.3201 23.7749 37.0051 25.0301 37.0051H25.9702C27.2254 37.0051 28.4605 37.3201 29.5624 37.9211V37.9211C30.907 38.6545 31.9948 39.7819 32.6798 41.1519L33.6702 43.1327" stroke="white" stroke-linecap="round" stroke-linejoin="round"/>
</svg>
