<svg width="21" height="20" viewBox="0 0 21 20" fill="none" xmlns="http://www.w3.org/2000/svg">
<path d="M10.9141 0C9.60084 0 8.30048 0.258658 7.08723 0.761205C5.87397 1.26375 4.77158 2.00035 3.84299 2.92893C1.96763 4.8043 0.914063 7.34784 0.914062 10C0.914063 12.6522 1.96763 15.1957 3.84299 17.0711C4.77158 17.9997 5.87397 18.7362 7.08723 19.2388C8.30048 19.7413 9.60084 20 10.9141 20C13.5662 20 16.1098 18.9464 17.9851 17.0711C19.8605 15.1957 20.9141 12.6522 20.9141 10C20.9141 8.68678 20.6554 7.38642 20.1529 6.17317C19.6503 4.95991 18.9137 3.85752 17.9851 2.92893C17.0565 2.00035 15.9542 1.26375 14.7409 0.761205C13.5276 0.258658 12.2273 0 10.9141 0ZM5.98406 16.28C6.41406 15.38 9.03406 14.5 10.9141 14.5C12.7941 14.5 15.4141 15.38 15.8441 16.28C14.4434 17.396 12.7049 18.0026 10.9141 18C9.05406 18 7.34406 17.36 5.98406 16.28ZM17.2741 14.83C15.8441 13.09 12.3741 12.5 10.9141 12.5C9.45406 12.5 5.98406 13.09 4.55406 14.83C3.49025 13.4446 2.91373 11.7467 2.91406 10C2.91406 5.59 6.50406 2 10.9141 2C15.3241 2 18.9141 5.59 18.9141 10C18.9141 11.82 18.2941 13.5 17.2741 14.83ZM10.9141 4C8.97406 4 7.41406 5.56 7.41406 7.5C7.41406 9.44 8.97406 11 10.9141 11C12.8541 11 14.4141 9.44 14.4141 7.5C14.4141 5.56 12.8541 4 10.9141 4ZM10.9141 9C10.5162 9 10.1347 8.84196 9.8534 8.56066C9.5721 8.27936 9.41406 7.89782 9.41406 7.5C9.41406 7.10218 9.5721 6.72064 9.8534 6.43934C10.1347 6.15804 10.5162 6 10.9141 6C11.3119 6 11.6934 6.15804 11.9747 6.43934C12.256 6.72064 12.4141 7.10218 12.4141 7.5C12.4141 7.89782 12.256 8.27936 11.9747 8.56066C11.6934 8.84196 11.3119 9 10.9141 9Z" fill="white"/>
</svg>
